<?xml version="1.0" standalone="no"?>
<!DOCTYPE svg PUBLIC "-//W3C//DTD SVG 20010904//EN"
 "http://www.w3.org/TR/2001/REC-SVG-20010904/DTD/svg10.dtd">
<svg version="1.0" xmlns="http://www.w3.org/2000/svg"
 width="1200.000000pt" height="630.000000pt" viewBox="0 0 1200.000000 630.000000"
 preserveAspectRatio="xMidYMid meet">

<g transform="translate(0.000000,630.000000) scale(0.100000,-0.100000)"
fill="#000000" stroke="none">
<path d="M0 3150 l0 -3150 6000 0 6000 0 0 3150 0 3150 -6000 0 -6000 0 0
-3150z m7525 1962 c111 -37 193 -88 276 -171 85 -85 136 -169 171 -281 l23
-75 0 -1445 0 -1445 -23 -75 c-35 -112 -86 -196 -171 -281 -85 -85 -169 -136
-281 -171 l-75 -23 -1445 0 -1445 0 -75 23 c-112 35 -196 86 -281 171 -85 85
-136 169 -171 281 l-23 75 0 1445 0 1445 23 75 c61 194 206 355 386 428 129
52 76 51 1611 49 l1430 -2 70 -23z"/>
<path d="M4531 5085 c-183 -40 -350 -175 -433 -351 -61 -129 -59 -68 -56
-1627 l3 -1422 22 -65 c67 -194 219 -346 413 -413 l65 -22 1425 -3 c1597 -3
1498 -7 1651 70 155 77 274 228 319 404 19 75 20 117 20 1484 0 1367 -1 1409
-20 1484 -58 226 -230 398 -456 456 -75 19 -115 20 -1483 19 -1157 0 -1417 -3
-1470 -14z m1822 -783 c110 -30 230 -96 297 -162 273 -268 203 -733 -135 -896
-38 -19 -77 -34 -87 -34 -41 0 -13 -16 55 -32 228 -55 397 -222 443 -440 19
-88 13 -255 -11 -338 -59 -195 -197 -335 -407 -411 -146 -53 -218 -59 -795
-59 l-523 0 0 1201 0 1200 543 -3 c520 -4 545 -5 620 -26z"/>
<path d="M5490 3680 l0 -380 299 0 c335 0 414 9 516 60 88 43 130 82 167 157
27 55 33 80 36 152 11 219 -102 348 -332 380 -43 6 -214 11 -382 11 l-304 0 0
-380z"/>
<path d="M5490 2616 l0 -416 354 0 c394 0 465 7 572 60 151 74 226 216 210
399 -14 174 -119 290 -312 347 -50 15 -116 18 -441 21 l-383 4 0 -415z"/>
</g>
</svg>
